<?xml version="1.0" encoding="UTF-8"?>
<svg id="Calque_2" xmlns="http://www.w3.org/2000/svg" viewBox="0 0 517.54 371.15">
  <defs>
    <style>
      .cls-1, .cls-2 {
        fill: #eec005;
      }

      .cls-3 {
        fill: #f18a23;
      }

      .cls-4 {
        fill: #ec6607;
      }

      .cls-2 {
        opacity: .46;
      }
    </style>
  </defs>
  <g id="Calque_1-2" data-name="Calque_1">
    <g>
      <path class="cls-1" d="M146.03,32.75c-4.84-1.64-9.18-4.48-13.77-6.72-3.04-1.48-6.48-3.51-6.84-6.87-.42-3.88,4.07-6.94,7.92-6.29,3.85.65,6.79,3.84,8.7,7.25,1.91,3.4,3.12,7.19,5.26,10.46,0,0,2.93,3.59-1.26,2.17Z"/>
      <path class="cls-1" d="M151.25,48.18c-4.94,1.29-9.86,2.68-14.79,4.02-3.26.89-7.18,1.63-9.67-.65-2.88-2.64-1.51-7.9,1.81-9.95s7.64-1.58,11.32-.29c3.68,1.3,7.08,3.35,10.85,4.4,0,0,4.9,1.32.49,2.47Z"/>
      <path class="cls-1" d="M160.73,25.37c.84-3.81,2.62-7.35,3.68-11.11,1.06-3.76,1.23-8.09-1.03-11.28-2.26-3.19-7.6-4.2-10.04-1.16-2.12,2.64-1.12,6.5-.02,9.7,1.66,4.83,3.32,9.66,4.98,14.49,0,0,1.32,4.4,2.43-.65Z"/>
    </g>
    <g>
      <path class="cls-3" d="M67.95,242.12c-2.94-.43-7.52-.43-10.45-.61-2.85-.26-3.71.61-3.54,3.46.09,1.38.17,2.76.09,4.15-.17,2.42.09,2.85,2.42,2.68,1.47-.17,4.58-.09,6.05,0,.17,0,.52.52.52.69-.43,5.53-1.73,7.86-3.2,9.42-2.94,3.28-8.47,2.59-11.75-1.04-3.11-3.28-3.71-7.43-4.58-11.58-.78-3.63.52-7.17.69-10.8.26-3.63,1.81-6.74,3.97-9.59,2.76-3.46,4.41-5.27,9.42-4.58,2.33.35,4.93,1.99,5.7,4.41.09.35.34,1.04,1.38,1.04.52-.09,1.47-.17,2.59-.52.69-.17,1.47-.52,1.99-.69.52-.17,1.64-.35,2.07-.52,1.12-.52,1.04-1.12.86-1.9-.17-.6-.34-1.12-.52-1.64-1.04-2.76-2.59-5.53-5.53-7.17-3.71-2.16-6.82-3.37-10.45-3.28-4.67.17-8.55,1.9-12.09,5.1-5.7,5.01-8.12,11.58-9.59,18.58-.69,3.02-1.04,6.13-.69,9.33.6,5.53,1.21,11.06,4.41,16.16,3.8,5.96,8.55,9.94,15.81,10.54,6.31.6,11.15-1.82,14.86-6.48,3.2-3.97,5.1-10.97,5.19-17.8,0-3.54-2.08-6.91-5.62-7.34Z"/>
      <path class="cls-3" d="M93.95,214.3c-3.8.17-7.69.35-11.49.78-2.68.17-5.36,2.68-5.44,4.93-.35,4.58-.69,9.16-.78,13.74-.09,9.59,0,19.27,0,28.86,0,1.99-.09,3.97,0,5.87.09,3.71-.61,4.23,2.94,4.23,1.38,0,3.89,0,5.27.09,1.56,0,2.16-.78,2.16-2.25-.09-2.07,0-4.23,0-6.65,0-2.85-.09-5.36,0-7.78,0-2.07.17-4.15.26-6.22,2.08,0,4.15-.09,6.22-.09h.35c.86-.09,1.04.86,1.21,1.56.61,1.99.52,2.33.86,3.72,1.12,5.44,2.94,10.71,3.72,16.24.17,1.21.86,2.76,2.85,2.16,2.07-.6,4.32-.86,6.39-1.56.95-.35,1.38-1.38,1.04-2.51-1.9-6.82-3.8-13.74-5.7-20.56-.52-1.56-.09-2.68,1.12-3.8,1.73-1.56,3.63-3.02,4.93-4.92,3.28-4.49,3.46-13.31.17-17.45-3.97-5.1-9.16-8.64-16.07-8.38ZM102.07,233.05c-.52,2.42-2.68,3.8-4.75,5.01-3.02,1.56-6.31,1.47-9.42,2.07-.86.17-1.29,0-1.38-1.04-.17-4.23-.43-8.38-.69-12.61.26-1.38-.61-2.68.95-2.59,3.37.17,6.74-.43,10.02.69,3.8,1.38,6.05,4.58,5.27,8.47Z"/>
      <path class="cls-3" d="M154.68,258.79c-.52-2.5-1.3-5.53-2.07-8.38-.69-3.28-1.38-6.22-2.07-9.16-.78-3.89-1.47-7.78-2.33-11.58-.95-3.8-1.82-7.6-3.02-11.32-.35-1.12-1.47-2.16-3.11-2.07-2.59.09-5.18.17-7.69,0-2.16-.09-3.28.69-4.06,2.68-1.81,4.67-3.89,9.33-5.44,14.08-2.76,7.86-5.27,15.72-7.77,23.67-.52,1.9-2.51,10.11-2.85,12.01-.17.61.26,1.73.78,1.9,1.29.52,2.68.69,4.06.86,1.21.09,2.68.35,3.54-.26.78-.43.78-1.99,1.21-3.11.34-.95,2.33-8.12,2.68-9.07,1.21-3.2,1.9-3.11,5.19-3.11,1.81,0,3.63-.26,4.92-.26,1.47-.09,2.85-.09,4.41-.09,2.85-.09,2.85,0,3.45,3.02.69,3.02,2.07,7.78,2.85,10.8.17.43.6,1.12.86,1.12,2.76.09,5.44.17,8.12,0,.78-.09,1.3-.52.78-1.9-.95-2.76-1.73-6.31-2.42-9.85ZM140.43,245.83c-2.16.35-4.41.61-6.65.86-1.21,0-1.73-.09-2.25,0-.95.09-1.3-.35-.95-1.3,1.9-5.27,3.89-10.45,5.79-15.72.17-.52.69-.95,1.04-1.47.17.52.35,1.04.43,1.56,1.12,4.92,2.33,9.85,3.45,14.86.09.35-.52,1.12-.86,1.21Z"/>
      <path class="cls-3" d="M199.43,221.99c-.17-1.64-.69-2.25-2.77-2.33-1.9-.09-3.71.09-5.53,0-1.9-.09-2.51.69-2.42,2.51.26,3.37.35,11.49.26,14.86-.17,4.49-.52,8.81-.78,13.3-.09.86-.09,1.81-.17,2.76-.6-.78-1.12-2.33-1.73-3.11-.69-.95-1.47-1.9-1.99-2.94-3.8-6.74-8.04-16.85-11.23-24.02-.34-.86-1.04-2.25-2.68-1.81-1.73.35-3.63.52-5.53.69-1.12.17-2.59-.43-3.2.95-.43.95-.61,2.16-.69,3.2-.35,5.01-.52,10.71-.52,15.72-.09,5.1-.69,20.56-.43,23.41.17,2.07-.78,3.11,3.02,3.11h2.59c2.94,0,3.37-.35,3.45-3.2.26-5.44.43-15.21.69-20.73,0-.35,0-1.56.17-1.9.43.17,2.07,3.11,2.25,3.54,2.33,4.41,6.05,11.92,8.9,16.07,1.99,2.76,1.64,3.11,5.7,3.8,2.16.35,6.48-.43,9.07-.86.69-.09,1.38-1.12,1.47-1.9.52-3.8.43-9.07.78-12.96.61-6.31,1.99-18.23,1.3-24.71v-3.46Z"/>
      <path class="cls-3" d="M230.53,222.25c-5.79-6.31-13.39-8.38-21.77-7.95-.61,0-2.42.43-2.77.95-1.04,1.3-1.47,2.16-1.9,4.67-.26,1.64-1.12,16.67-1.04,21.69,0,0-.26,3.97-.26,5.96-.09,6.91-.43,14.17-.52,21.08,0,1.12.34,1.82,1.04,2.59,2.94,3.2,6.57,2.59,10.02,1.81,3.37-.78,6.48-2.07,9.68-3.28,5.7-2.16,10.19-5.53,12.61-11.32,2.42-5.7,3.37-11.58,3.02-17.8-.26-7.34-3.37-13.22-8.12-18.4ZM228.37,247.99c-.6,2.33-.78,4.75-1.99,6.91-2.07,3.63-5.79,5.01-9.33,6.74-.09,0-.26-.09-.34,0-1.47.43-3.03.86-4.49,1.38-.09-1.99.35-10.02.43-12.18.26-7.95.52-15.98.78-24.02.09-2.85,1.12-3.37,3.63-2.25,4.58,2.07,7.95,5.27,9.68,10.02,2.25,4.58,2.76,8.73,1.64,13.39Z"/>
      <path class="cls-3" d="M286.17,218.62c-5.01-3.28-10.71-4.58-16.67-4.49-4.32.09-7.52,1.12-8.04,3.28-.26.95-.34,4.84-.26,5.96.17,12.79.09,30.58.17,38.62.09,3.02.35,5.18.43,9.16,0,2.33.17,2.59,2.51,2.42,1.9-.17,4.58.52,6.39,0,.86-.26,1.12-.26,1.12-2.07,0-3.28.17-4.41-.17-7.78-.08-1.38-.17-2.51-.17-3.97.09-1.3.78-1.9,2.07-1.99,1.73-.09,3.54-.17,5.27-.69,4.15-1.3,8.21-3.28,10.8-6.83,3.54-4.75,5.96-10.19,5.62-16.5-.43-6.65-3.72-11.58-9.07-15.12ZM283.23,241.86c-2.33,3.72-6.22,5.62-10.54,6.31-1.12.17-1.12-.43-1.21-1.3-.17-4.49-.43-9.07-.69-13.65-.17-2.51-.43-4.84-.69-7.52-.08-1.21.17-2.07,1.81-1.99,2.33.09,4.23,1.04,6.22,1.9,4.58,1.47,6.74,4.67,7.26,8.38.35,2.51-.78,5.62-2.16,7.86Z"/>
      <path class="cls-3" d="M338.43,258.79c-.52-2.5-1.3-5.53-2.08-8.38-.69-3.28-1.38-6.22-2.07-9.16-.78-3.89-1.47-7.78-2.33-11.58-.95-3.8-1.81-7.6-3.02-11.32-.35-1.12-1.47-2.16-3.11-2.07-2.59.09-5.18.17-7.69,0-2.16-.09-3.28.69-4.06,2.68-1.81,4.67-3.89,9.33-5.44,14.08-2.76,7.86-5.27,15.72-7.78,23.67-.52,1.9-2.51,10.11-2.85,12.01-.17.61.26,1.73.78,1.9,1.3.52,2.68.69,4.06.86,1.21.09,2.68.35,3.54-.26.78-.43.78-1.99,1.21-3.11.34-.95,2.33-8.12,2.68-9.07,1.21-3.2,1.9-3.11,5.19-3.11,1.81,0,3.63-.26,4.92-.26,1.47-.09,2.85-.09,4.41-.09,2.85-.09,2.85,0,3.45,3.02.69,3.02,2.07,7.78,2.85,10.8.17.43.6,1.12.86,1.12,2.76.09,5.44.17,8.12,0,.78-.09,1.3-.52.78-1.9-.95-2.76-1.73-6.31-2.42-9.85ZM324.18,245.83c-2.16.35-4.41.61-6.65.86-1.21,0-1.73-.09-2.25,0-.95.09-1.3-.35-.95-1.3,1.9-5.27,3.89-10.45,5.79-15.72.17-.52.69-.95,1.04-1.47.17.52.35,1.04.43,1.56,1.12,4.92,2.33,9.85,3.45,14.86.09.35-.52,1.12-.86,1.21Z"/>
      <path class="cls-3" d="M383.18,221.99c-.17-1.64-.69-2.25-2.77-2.33-1.9-.09-3.71.09-5.53,0-1.9-.09-2.5.69-2.42,2.51.26,3.37.35,11.49.26,14.86-.17,4.49-.52,8.81-.78,13.3-.09.86-.09,1.81-.17,2.76-.6-.78-1.12-2.33-1.73-3.11-.69-.95-1.47-1.9-1.99-2.94-3.8-6.74-8.04-16.85-11.23-24.02-.34-.86-1.04-2.25-2.68-1.81-1.73.35-3.63.52-5.53.69-1.12.17-2.59-.43-3.2.95-.43.95-.61,2.16-.69,3.2-.34,5.01-.52,10.71-.52,15.72-.09,5.1-.69,20.56-.43,23.41.17,2.07-.78,3.11,3.02,3.11h2.59c2.94,0,3.37-.35,3.45-3.2.26-5.44.43-15.21.69-20.73,0-.35,0-1.56.17-1.9.43.17,2.07,3.11,2.25,3.54,2.33,4.41,6.05,11.92,8.9,16.07,1.99,2.76,1.64,3.11,5.7,3.8,2.16.35,6.48-.43,9.07-.86.69-.09,1.38-1.12,1.47-1.9.52-3.8.43-9.07.78-12.96.61-6.31,1.99-18.23,1.3-24.71v-3.46Z"/>
      <path class="cls-3" d="M396.1,225.01c-.26-1.12-3.97-1.38-6.65-1.21-1.47.09-1.99-.09-2.42.69-.43.78-.26,2.59-.26,4.06,0,5.1.09,10.89.09,15.29,0,.52.09,1.04.09,1.47-.6,4.93-.6,14.95-.43,19.87.08,1.3.08,3.28.08,4.41.17,2.85.69,4.06,3.54,3.89,1.73-.17,3.46-.35,5.18-.43,1.04,0,1.56-.17,1.38-1.47-.52-5.96-.17-17.11.09-23.07.08-5.62-.26-13.39-.43-18.92-.09-1.47,0-3.2-.26-4.58Z"/>
      <path class="cls-3" d="M424.99,261.3c-.43,0-.78.52-1.21.52-3.11.35-7.78.6-10.89.86-1.38.17-1.9-.52-1.82-2.25.09-3.46-.09-3.71-.09-7.17,0-.26.43-.86.78-.86,1.99-.35,4.23-.35,6.22-.52,1.73-.09,3.2-.26,4.93-.26,1.47,0,2.25-.69,2.16-2.16-.26-2.25-.34-4.58-.78-6.74-.26-1.38-1.29-1.47-2.76-1.3-3.28.26-5.44.43-8.21.69-1.56.17-2.33,0-2.33-1.56,0-2.07-.35-3.28-.43-5.36-.08-1.04-.08-2.42-.34-3.8,0-1.99-.09-2.59-.17-4.15-.17-1.64.09-2.16,2.07-2.33,3.28-.26,9.42-.52,12.79-.52,2.51-.09,3.2-1.12,2.68-3.46-.35-1.21-.6-2.5-.69-3.8,0-1.64-.52-2.42-2.25-2.42-6.14-.09-15.21.09-21.25,1.47-3.2.78-3.37,3.02-3.28,6.31.09,1.9.09,4.84.09,6.22,0,5.1.34,8.55.17,13.56-.26,9.42-.09,14.17.61,23.76.17,2.68,1.04,5.18,3.45,6.13,2.16.86,4.84,1.3,7.08.78,4.06-.95,9.85-.78,13.91-1.21,5.79-.52,5.27.26,5.27-5.53,0-4.41-1.47-5.62-5.7-4.93Z"/>
      <path class="cls-3" d="M467.06,240.13c3.28-4.49,3.46-13.31.17-17.45-3.97-5.1-9.16-8.64-16.07-8.38-3.8.17-7.69.35-11.49.78-2.68.17-5.36,2.68-5.44,4.93-.35,4.58-.69,9.16-.78,13.74-.09,9.59,0,19.27,0,28.86,0,1.99-.09,3.97,0,5.87.09,3.71-.61,4.23,2.94,4.23,1.38,0,3.89,0,5.27.09,1.56,0,2.16-.78,2.16-2.25-.09-2.07,0-4.23,0-6.65,0-2.85-.09-5.36,0-7.78,0-2.07.17-4.15.26-6.22,2.08,0,4.15-.09,6.22-.09h.35c.86-.09,1.04.86,1.21,1.56.61,1.99.52,2.33.86,3.72,1.12,5.44,2.94,10.71,3.72,16.24.17,1.21.86,2.76,2.85,2.16,2.07-.6,4.32-.86,6.39-1.56.95-.35,1.38-1.38,1.04-2.51-1.9-6.82-3.8-13.74-5.7-20.56-.52-1.56-.09-2.68,1.12-3.8,1.73-1.56,3.63-3.02,4.93-4.92ZM459.29,233.05c-.52,2.42-2.68,3.8-4.75,5.01-3.02,1.56-6.31,1.47-9.42,2.07-.86.17-1.29,0-1.38-1.04-.17-4.23-.43-8.38-.69-12.61.26-1.38-.61-2.68.95-2.59,3.37.17,6.74-.43,10.02.69,3.8,1.38,6.05,4.58,5.27,8.47Z"/>
    </g>
    <g>
      <path class="cls-1" d="M229.64,329.52c-2.17-1.15-3.19-1.66-2.42-2.29,1.15-1.27,4.07-3.57,5.35-4.84,5.6-5.48,7.64-11.97,5.6-19.61-.38-1.15-.76-2.29-1.4-3.69-4.46-8.66-11.21-13.63-20.38-15.54-2.55-.51-4.97-1.02-7.9-1.15-4.46-.13-8.15.13-12.1,1.4-2.42.76-5.09,1.27-5.22,5.09-.26,9.93-.64,22.8-1.02,32.86-.26,4.84-.13,24.45,0,27.38.12,3.82-.13,7.64,0,11.46.25,5.48-.26,9.81,4.46,10.19,5.86.51,16.3.51,21.02-.25,4.46-.64,9.3-2.29,13.37-4.2,5.6-2.8,9.17-7.9,11.33-13.75,2.04-5.22,1.4-10.32-1.27-15.41-2.17-4.08-5.86-5.86-9.43-7.64ZM204.29,297.81c-.12-2.17.77-2.42,2.55-2.29,5.48.76,10.83,2.55,14.52,6.88,0,0,4.07,6.75.89,11.33-3.18,4.58-10.44,8.53-15.67,9.55-.51,0-1.53-.26-1.78-.64-.38-.51-.51-1.4-.51-2.04,0-7.64.13-15.15,0-22.8ZM218.05,354.74c-3.57,1.02-6.88,1.91-10.57,1.91-2.42,0-3.19-1.15-3.19-3.31.13-1.66,0-3.18,0-4.84.13-3.06.26-6.11.38-9.17,4.58.26,9.04-.64,13.75.51,2.68.51,7.39,2.8,7.9,5.99.76,3.82-3.06,7.51-8.28,8.92Z"/>
      <path class="cls-1" d="M259.82,291.95c-.38-1.66-5.86-2.04-9.81-1.78-2.17.13-2.93-.13-3.57,1.02-.64,1.15-.38,3.82-.38,5.99,0,7.51.13,16.05.13,22.54,0,.76.13,1.53.13,2.16-.89,7.26-.89,22.03-.64,29.29.12,1.91.12,4.84.12,6.5.26,4.2,1.02,5.99,5.22,5.73,2.55-.26,5.1-.51,7.64-.64,1.53,0,2.29-.25,2.04-2.16-.77-8.79-.26-25.22.13-34.01.12-8.28-.38-19.74-.64-27.89-.13-2.16,0-4.71-.38-6.75Z"/>
      <path class="cls-1" d="M321.84,310.42c-.26-8.02-2.93-14.9-9.55-20-4.07-3.18-9.3-5.09-14.14-4.97-5.09.13-10.32,2.55-15.41,4.46-1.78.76-3.31,2.8-4.58,4.46-7.9,10.19-10.95,22.29-11.84,34.77-.77,10.06,1.27,20,7.26,28.4,4.33,5.99,9.94,9.55,17.07,10.44,7.9.89,14.14-3.06,18.6-8.92,5.22-7.01,9.17-15.03,11.21-24.07.51-2.04.76-3.69,1.02-5.35.51-4.2,1.15-8.41,1.27-12.61.13-2.17-.89-4.33-.89-6.62ZM306.43,330.29c-1.65,6.24-4.2,12.1-7.39,17.7-1.65,2.93-3.82,4.33-6.88,4.71-1.65.26-3.18-.13-4.58-1.4-3.31-2.8-5.09-8.28-6.11-12.23-1.02-3.69-.38-8.66-.13-11.46.76-7.01,2.42-13.5,4.58-20,1.78-5.22,11.59-8.66,16.43-5.99,1.78.89,3.57,3.18,3.95,5.09,1.66,7.77,2.16,15.79.13,23.56Z"/>
    </g>
    <g>
      <path class="cls-1" d="M24.08,262.64c-.04-.59-.26-.88-.84-.88-.92,0-1.87.04-2.83,0-.51-.04-.44.29-.44.59.11,1.47.11,2.97.37,4.4.11.62.15.7-.44.66-2.64,0-5.25-.04-7.85,0-3.12.07-6.2.18-9.28.33-.73.04-1.65.04-2.13.48-.37.29-.11,1.25-.15,1.94v.44c.04,1.1.11,1.21,1.28,1.21h11.3c2.64,0,5.17-.04,7.67,0,.88.04,2.42-.11,2.83-.29.51-.26.92-1.36.84-2.42-.18-2.16-.26-4.33-.33-6.46Z"/>
      <path class="cls-1" d="M3.31,259.07c.81-.04,2.06-.04,2.64-.04,2.17,0,3.63-.15,5.76-.07,4,.11,6.02.04,10.09-.26,1.14-.07,2.2-.44,2.6-1.47.37-.92.55-2.05.33-3.01-.4-1.72-.33-4.18-.51-5.91-.22-2.46.11-2.24-2.35-2.24-1.87,0-2.39.62-2.09,2.42,0,.18.22.33.22.51.15,1.32.26,3.3.37,4.62.07.59-.22.81-.95.77-1.47-.04-1.58.04-3.05.04-.11,0-.37-.18-.37-.33-.15-.84-.15-1.8-.22-2.64-.04-.73-.11-1.36-.11-2.09,0-.62-.29-.95-.92-.92-.95.11-1.94.15-2.86.33-.59.11-.62.55-.55,1.17.11,1.39.18,2.31.29,3.49.07.66,0,.99-.66.99-.88,0-1.39.15-2.28.18-.44.04-1.03.04-1.61.15-.84,0-1.1.04-1.76.07-.7.07-.92-.04-.99-.88-.11-1.39-.22-4-.22-5.43-.04-1.06-.48-1.36-1.47-1.14-.51.15-1.06.26-1.61.29-.7,0-1.03.22-1.03.95-.04,2.61.04,6.46.62,9.03.33,1.36,1.28,1.43,2.68,1.39Z"/>
    </g>
    <path class="cls-4" d="M122.99,96.79h0s0-.08,0-.13c0,.03,0,.07,0,.13Z"/>
    <g>
      <path class="cls-2" d="M295.59,136.53c.72,1.31,2.04,2.24,3.43,2.7,1.69.55,3.51.33,5.22.07,1.47-.22,2.99-.5,4.1-1.59,1.93-1.9,1.47-4.85.02-6.93-.27-.55-.68-1.04-1.2-1.43-.26-.19-.54-.34-.84-.47-1.61-.93-3.54-1-5.15-.26-.57.1-1.13.23-1.65.39-1.55.48-2.95,1.37-3.82,2.76-.91,1.45-.94,3.26-.11,4.76ZM304.46,132.34s0,0,0,0c.03,0,.05.02.06.02.07.08-.02.02-.07-.03ZM304.53,132.36c.21.13.09.06,0,0h0Z"/>
      <path d="M211.27,78.72c5.98-2.39,12-7.19,10.95-13.51-.29-1.76-1.11-3.25-1.9-4.7-.56-1.03-1.1-2.01-1.41-3.03-.82-2.68.13-5.05,1.08-6.56,1.86-2.96,5.3-5.22,8.77-5.75,6.52-1.01,13.24,2.02,18.66,4.44l.32.15,1.06-2.36.11-.27-.26-.12c-5.79-2.59-12.98-5.81-20.32-4.69-4.32.66-8.45,3.37-10.77,7.07-1.79,2.85-2.29,6.02-1.4,8.93.4,1.29,1.02,2.44,1.63,3.56.71,1.29,1.37,2.51,1.59,3.8.78,4.64-4.46,8.48-9.18,10.37-.45.18-.91.36-1.37.54-5.07,1.98-10.82,4.23-12.91,9.63-1.35,3.48-.7,7.17-.07,10.74.65,3.69,1.26,7.18-.46,9.92-1.42,2.26-4.08,3.39-6.89,4.59-2.76,1.18-5.61,2.39-7.61,4.79-3.21,3.83-2.97,9.21-2.2,13.04.27,1.37.63,2.73.97,4.07.7,2.68,1.36,5.21,1.39,7.81.04,3.37-1.45,7.51-4.83,8.64l-.27.09.91,2.73.27-.09c4.75-1.58,6.85-7.02,6.8-11.41-.04-2.95-.77-5.77-1.49-8.53-.33-1.27-.67-2.59-.93-3.88-.64-3.22-.89-7.67,1.59-10.63,1.56-1.87,3.98-2.9,6.54-3.99,3.1-1.32,6.3-2.69,8.2-5.71,2.31-3.68,1.57-7.88.85-11.95-.59-3.33-1.14-6.47-.08-9.2,1.63-4.22,6.54-6.13,11.28-7.99.47-.18.93-.37,1.39-.55Z"/>
      <path d="M285.52,145.58l-1.62,1.05c-2.69,1.74-5.66,2.98-8.85,3.67-.34.06-2.35.04-3.82.02h-.19c-6.16-.08-6.85-.06-7.43.89l-.42.74.38.72c3.96,7.48,10.05,7.88,13.33,7.46.35-.05.68-.1.99-.16,2.82-.56,5.44-2.45,7.02-5.05,1.45-2.39,1.86-5.04,1.15-7.48l-.54-1.86ZM283.51,150.21c-.07,1.08-.43,2.18-1.06,3.22-1.17,1.93-3.08,3.32-5.12,3.72-2.89.58-6.96.33-10.08-3.97,1.17-.01,2.62,0,3.75.02,2.87.04,4.09.04,4.64-.08,2.78-.6,5.42-1.58,7.87-2.91Z"/>
      <path d="M180.3,98.11c-.23-8.66,5.16-17.13,13.1-20.6.85-.37,1.73-.7,2.67-1.06,3.74-1.41,7.61-2.87,9.32-6.69,1.38-3.08.66-6.28-.03-9.38-.18-.81-.37-1.65-.51-2.46-.92-5.39.48-11.24,3.74-15.63,3.25-4.38,8.38-7.39,13.75-8.09.04,0,.09-.01.13-.02l.29-.04-.36-2.85-.29.04c-6.21.8-12.12,4.25-15.83,9.25-3.72,5.01-5.31,11.68-4.26,17.83.15.87.35,1.75.54,2.6.62,2.76,1.2,5.37.21,7.57-1.23,2.73-4.38,3.92-7.72,5.18-.93.35-1.88.71-2.8,1.11-8.99,3.92-15.08,13.51-14.82,23.31v.29s2.88-.08,2.88-.08v-.29Z"/>
      <path d="M290.57,116.08c.06,0,.12,0,.18-.02.76-.1,1.44-.58,1.85-1.32.28-.5.4-1.07.37-1.61.36-.43.56-.99.55-1.6,0-.83-.37-1.61-.99-2.09-1.11-.86-2.83-.74-3.91.28-.92.86-1.33,2.24-1.07,3.6.27,1.39,1.41,2.83,3.02,2.75Z"/>
      <path d="M245.19,129.79c.06,0,.12,0,.18-.02.76-.1,1.44-.58,1.85-1.32.28-.5.4-1.07.37-1.61.36-.43.56-.99.55-1.6,0-.83-.37-1.61-.99-2.09-1.11-.86-2.83-.74-3.91.28-.92.86-1.33,2.24-1.07,3.6.27,1.39,1.41,2.83,3.02,2.75Z"/>
      <path class="cls-2" d="M237.56,153c.72,1.31,2.04,2.24,3.43,2.7,1.69.55,3.51.33,5.22.07,1.47-.22,2.99-.5,4.1-1.59,1.93-1.9,1.47-4.85.02-6.93-.27-.55-.68-1.04-1.2-1.43-.26-.19-.54-.34-.84-.47-1.61-.93-3.54-1-5.15-.26-.57.1-1.13.23-1.65.39-1.55.48-2.95,1.37-3.82,2.76-.91,1.45-.94,3.26-.11,4.76ZM246.43,148.81s0,0,0,0c.03,0,.05.02.06.02.07.08-.02.02-.07-.03ZM246.5,148.83c.21.13.09.06,0,0h0Z"/>
      <g>
        <path d="M104.36,162.38l2.8,3.41c9.22,11.19,25.73,15.49,39.64,10.45l-14.31,17.75,3.4-.33c.6-.06,1.2-.13,1.79-.2,22.81-2.96,39.02-20.01,54.69-36.5,3.46-3.64,7.03-7.4,10.63-10.96,1.57-1.55,2.87-2.69,4.32-3.8.81-.46,1.57-.99,2.26-1.61-.11,1.22-.24,2.42-.38,3.61-.11.93-.21,1.85-.31,2.77-.32.75-.63,1.5-.95,2.24l-.14.32c-.3.7-.6,1.4-.89,2.1-4.09,9.7-7.46,20.06-4.43,30.06l.08.28,2.75-.83-.08-.28c-2.55-8.4-.01-17.37,3.44-25.93.29,3.62,1.3,7.26,3.75,11.06.8,1.23,1.64,2.39,2.46,3.52,2.01,2.76,3.9,5.36,4.85,8.71,1.3,4.6,1.15,9.5-.43,13.81l-.1.27,2.7.99.1-.27c1.79-4.87,1.96-10.41.5-15.58-1.09-3.85-3.23-6.78-5.3-9.62-.79-1.09-1.61-2.22-2.37-3.39-3.63-5.62-3.67-11.08-3.12-16.75.61-1.46,1.22-2.93,1.79-4.4,3.35,9.92,7.79,18.71,15.7,24.45,9.95,7.23,23.2,7.53,33.63,6.98.99-.05,1.91-.11,2.81-.18h0s.26.26.26.26c.65,2.3,1.91,9-.03,12.34-.57.98-1.37,1.59-2.45,1.85l.66,2.69c1.82-.45,3.23-1.51,4.19-3.15,2.7-4.65.77-12.72.37-14.23,1.21-.11,2.37-.24,3.47-.38,3.02-.39,5.8-.93,8.39-1.6-1.37,4.76-3.29,13.75-.13,19.01,1.38,2.29,3.53,3.65,6.4,4.02l.36-2.75c-2.01-.27-3.45-1.15-4.39-2.7-3-4.99-.21-14.97.93-18.49,2.03-.66,3.93-1.41,5.72-2.28,12.72-6.13,22.29-18.92,25.6-34.2,2.66-12.27,1.98-24.29-1.99-35.82.6.41,1.22.82,1.82,1.21,2.73,1.78,5.31,3.45,6.41,6.08,1.36,3.23.1,6.81-1.22,10.59-1.17,3.33-2.37,6.77-1.97,10.34.53,4.68,3.75,8.46,6.83,11.54.32.32.64.64.97.96,2.59,2.56,5.26,5.2,6.5,8.45s.51,7.79-2.62,9.2l-.26.12,1.18,2.62.26-.12c4.76-2.15,5.84-8.34,4.12-12.85-1.46-3.83-4.36-6.69-7.19-9.49-.31-.31-.63-.62-.94-.93-2.73-2.73-5.58-6.03-6.01-9.83-.33-2.92.76-6.04,1.82-9.07,1.45-4.13,2.95-8.41,1.16-12.66-1.45-3.44-4.52-5.44-7.5-7.38-2.29-1.49-4.47-2.92-5.8-4.9l-.07-.15h-.02c-.13-.2-.26-.4-.38-.61-.17-.32-.31-.65-.43-.99l.1-.07-.16-.24s-.04-.05-.06-.08c-.74-2.38-.49-5.08-.22-7.92.13-1.38.27-2.81.29-4.22.1-8.05-4.2-16.08-10.95-20.45-4.99-3.24-12.71-4.65-19.68-3.51,1.25-3.68,1.17-8-.32-12.12-1.51-4.18-4.37-8.18-8.73-12.24-12.34-11.49-29.7-17.21-46.45-15.3-16.71,1.89-32.41,11.43-41.82,25.36-4.56,6.75-7.63,14.34-10.6,21.68l-13.99,34.55c-2.83,6.99-5.76,14.22-6.77,21.93-.38,2.92-.49,5.87-.59,8.74-.13,3.63-.26,7.39-.98,10.95-1.75,8.61-7.23,16.53-14.68,21.19-7.44,4.66-16.97,6.14-25.47,3.96l-4.27-1.1ZM215.12,138.85c1.63-5,2.68-10.13,2.34-15.45-.22-3.47-1.05-6.87-1.85-10.15-.84-3.45-1.71-7.02-1.81-10.55-.1-3.33.83-6.76,2.53-9.41,1.83-2.84,4.36-4.45,7.14-4.53h.15c1.99.28,3.93.73,5.7,1.14l23.85,5.57.79-2.73-.26-.09c-1.43-.5-1.98-1.84-2.18-2.6-.5-1.9,0-4.12,1.23-5.52,2.47-2.8,6.64-3.55,10.38-3.92,9.93-.98,19.88-.21,29.58,2.27l5,1.61c3.7,1.76,6.89,4.44,9.28,7.76.16.45.36.9.59,1.35.14.26.3.5.45.75,5.74,12.75,7.14,26.2,4.15,39.99-3.13,14.43-12.12,26.47-24.04,32.22-8.13,3.92-17.43,4.88-25.46,5.3-10.57.55-22.62.22-31.79-6.43-8.18-5.94-12.46-15.69-15.8-26.56ZM208.8,119.54c-1.56-3.82-3.03-7.43-3.51-11.39-.87-7.13,1.69-16.07,9.38-18.87.6-.22,1.22-.38,1.84-.51-3.63,3.26-5.73,8.79-5.57,14.02.11,3.83,1.01,7.55,1.89,11.15.77,3.16,1.56,6.43,1.77,9.66.22,3.39-.2,6.74-.99,10.06-.18-.65-.36-1.3-.54-1.95-.16-.58-.48-1-.72-1.32-.02-.02-.03-.04-.05-.06-.67-3.82-2.1-7.35-3.49-10.78ZM112.4,167.1c8.06.95,16.48-.9,23.24-5.14,8.1-5.07,14.07-13.69,15.97-23.06.77-3.79.91-7.67,1.04-11.43.1-2.79.2-5.68.57-8.45.97-7.35,3.83-14.41,6.59-21.23l13.99-34.55c2.92-7.2,5.93-14.65,10.32-21.15,8.94-13.24,23.85-22.32,39.76-24.11,15.92-1.82,32.44,3.62,44.17,14.54,4.02,3.74,6.63,7.37,7.98,11.11,1.52,4.2,1.33,8.59-.45,11.94-2.7.83-5.17,2.09-7.2,3.86l-.22.19,1.9,2.16.22-.19c1.93-1.69,4.4-2.84,7.09-3.54l.08.05.05-.08c6.71-1.69,14.8-.5,19.68,2.66,5.94,3.85,9.73,10.92,9.64,18-.02,1.29-.15,2.66-.27,3.98-.13,1.41-.27,2.83-.28,4.25-1.99-1.93-4.27-3.54-6.75-4.79l.03-.11-.66-.21s-.03-.02-.05-.03l-.26-.12-.02.04-4.22-1.36.02-.06-.28-.07c-.18-.05-.35-.08-.53-.13h-.03s0,0,0,0c-10.04-2.57-20.33-3.37-30.61-2.35-4.05.4-9.1,1.31-12.26,4.88-1.84,2.08-2.59,5.36-1.86,8.15.07.26.15.52.24.76l-19.02-4.44c-4.81-1.12-10.81-2.52-16.29-.52-9.17,3.34-12.26,13.7-11.25,21.92.53,4.34,2.15,8.3,3.71,12.13,1.42,3.48,2.76,6.8,3.36,10.35l-.11.05.13.26s.03.05.04.07c.07.45.13.9.17,1.36.09,1.02.13,2.04.13,3.04-.93,1.63-2.31,2.99-3.95,3.92h0s-.02.01-.02.01c-.17.1-.32.22-.5.31l-.26.13.05.11c-1.39,1.09-2.68,2.23-4.2,3.72-3.62,3.58-7.21,7.36-10.69,11.02-15.6,16.42-30.35,31.93-51.16,35.36l19.08-23.68-7.07,4.32c-11.83,7.23-28.32,5.53-38.76-3.88Z"/>
        <path d="M222.98,118.74c-1.87,3.27-1.95,7.61-.22,11.91,2.76,6.84,9.27,11.86,16.59,12.79,1.68.21,3.4.21,5.11-.02,5.67-.74,10.82-3.74,14.13-8.25,4.57-6.22,5.77-14.04,3.12-19.75,2.31-2.35,6.11-3.19,9.18-2,.16.56.36,1.12.58,1.69,2.76,6.84,9.27,11.86,16.59,12.78,1.68.21,3.4.21,5.11-.02,5.67-.74,10.81-3.74,14.13-8.25,4.53-6.16,5.43-14.28,2.24-20.21-2.6-4.84-7.43-7.34-13.59-7.04-4.73.23-9.11,1.86-13.35,3.44-4.47,1.66-8.67,3.47-10.9,7.38-1.16,2.03-1.63,4.47-1.41,7.05-3.54-.76-7.42.23-10.13,2.65-2.76-3.49-7.26-5.25-12.91-4.97-4.73.23-9.11,1.86-13.35,3.44-4.47,1.66-8.67,3.47-10.9,7.38ZM274.18,104.63c1.76-3.07,5.45-4.64,9.41-6.11,3.48-1.29,7.07-2.63,10.74-3.1.6-.08,1.19-.13,1.75-.16,4.99-.25,8.87,1.72,10.91,5.52,2.63,4.89,1.8,11.94-2.02,17.15-3.7,5.04-10.36,7.9-16.56,7.12-6.2-.78-11.94-5.2-14.28-11.01-1.4-3.48-1.38-6.9.05-9.41ZM225.47,120.17c1.76-3.07,5.45-4.65,9.41-6.11,3.48-1.29,7.07-2.63,10.74-3.1.59-.08,1.19-.13,1.75-.16,5.49-.27,9.45,1.56,11.46,5.29,2.54,4.72,1.48,11.86-2.57,17.37-3.7,5.04-10.36,7.9-16.56,7.12-6.2-.78-11.94-5.2-14.28-11.01-1.4-3.48-1.38-6.9.05-9.41Z"/>
      </g>
    </g>
    <g>
      <path class="cls-1" d="M489.75,209.42c3.08-4.07,7.15-7.3,10.73-10.95,2.37-2.42,5.37-5.04,8.68-4.33,3.82.82,5.3,6.05,3.46,9.5-1.84,3.45-5.79,5.23-9.62,5.97-3.83.74-7.81.69-11.58,1.69,0,0-4.34,1.65-1.67-1.88Z"/>
      <path class="cls-1" d="M473.46,209.5c.34-5.1.57-10.2.85-15.3.19-3.38.72-7.33,3.67-8.97,3.41-1.9,7.98,1.06,8.87,4.86s-.91,7.75-3.3,10.83c-2.39,3.08-5.41,5.66-7.6,8.9,0,0-2.79,4.23-2.49-.32Z"/>
      <path class="cls-1" d="M492.11,225.69c3.35,2,6.15,4.81,9.38,7,3.23,2.19,7.29,3.72,11.02,2.59,3.73-1.14,6.39-5.88,4.27-9.16-1.83-2.84-5.81-3.11-9.19-3.08-5.11.05-10.22.1-15.33.15,0,0-4.59-.14-.15,2.51Z"/>
    </g>
  </g>
</svg>